<?xml version="1.0" standalone="no"?>
<!DOCTYPE svg PUBLIC "-//W3C//DTD SVG 20010904//EN"
 "http://www.w3.org/TR/2001/REC-SVG-20010904/DTD/svg10.dtd">
<svg version="1.0" xmlns="http://www.w3.org/2000/svg"
 width="900.000000pt" height="900.000000pt" viewBox="0 0 900.000000 900.000000"
 preserveAspectRatio="xMidYMid meet">
<metadata>
Created by potrace 1.11, written by Peter Selinger 2001-2013
</metadata>
<g transform="translate(0.000000,900.000000) scale(0.100000,-0.100000)"
fill="#000000" stroke="none">
<path d="M4546 6885 c-9 -13 -16 -27 -16 -30 0 -4 -7 -13 -15 -22 -8 -8 -13
-19 -10 -24 4 -5 -1 -9 -9 -9 -9 0 -15 -3 -15 -7 3 -18 -2 -31 -22 -52 -12
-12 -22 -28 -23 -34 -1 -7 -11 -26 -22 -42 -12 -17 -31 -49 -44 -72 -13 -24
-27 -43 -32 -43 -4 0 -7 -3 -6 -7 3 -8 -41 -84 -53 -93 -3 -3 -9 -15 -13 -27
-4 -13 -12 -23 -17 -23 -6 0 -7 -4 -4 -10 3 -5 1 -10 -4 -10 -6 0 -11 -7 -11
-15 0 -8 -5 -15 -11 -15 -5 0 -7 -4 -4 -10 3 -5 2 -10 -3 -10 -9 0 -37 -50
-34 -62 1 -5 -2 -8 -7 -8 -10 0 -34 -38 -47 -72 -3 -10 -11 -18 -16 -18 -5 0
-6 -5 -3 -10 3 -6 -1 -13 -9 -16 -9 -3 -14 -9 -11 -14 2 -4 -4 -16 -15 -27
-10 -12 -16 -24 -13 -27 4 -3 1 -6 -5 -6 -7 0 -12 -9 -12 -21 0 -11 -4 -17
-10 -14 -5 3 -10 -1 -10 -9 0 -9 -9 -25 -20 -36 -11 -11 -17 -20 -14 -20 3 0
-4 -13 -15 -29 -12 -16 -21 -33 -21 -39 0 -5 -7 -15 -15 -22 -9 -7 -13 -15
-11 -18 3 -2 0 -10 -7 -18 -24 -26 -32 -39 -44 -66 -7 -16 -17 -28 -23 -28 -6
0 -9 -4 -5 -9 3 -5 -2 -16 -10 -24 -8 -9 -15 -20 -15 -26 0 -6 -5 -11 -11 -11
-5 0 -8 -4 -5 -9 3 -5 -5 -20 -19 -35 -13 -14 -21 -26 -18 -26 3 0 0 -7 -7
-15 -7 -8 -9 -15 -6 -15 4 0 1 -7 -6 -15 -31 -34 -36 -43 -31 -49 4 -3 2 -6
-3 -6 -5 0 -18 -17 -29 -37 -11 -21 -22 -40 -25 -43 -10 -10 -31 -45 -36 -62
-4 -10 -9 -18 -13 -18 -3 0 -12 -13 -19 -29 -13 -29 -91 -155 -111 -177 -5 -7
-7 -15 -4 -18 4 -3 1 -6 -6 -6 -7 0 -9 -5 -6 -10 3 -6 -1 -13 -9 -16 -9 -3
-13 -10 -10 -15 3 -5 2 -9 -3 -9 -4 0 -17 -18 -27 -40 -11 -22 -23 -40 -27
-40 -4 0 -10 -11 -13 -25 -4 -14 -11 -25 -17 -25 -6 0 -7 -5 -4 -10 3 -6 -1
-13 -9 -16 -9 -3 -13 -10 -10 -15 3 -5 1 -9 -5 -9 -6 0 -13 -11 -17 -25 -3
-14 -10 -25 -15 -25 -5 0 -9 -7 -9 -15 0 -9 -7 -18 -15 -21 -8 -4 -13 -10 -10
-14 3 -4 -4 -19 -15 -33 -11 -14 -20 -30 -20 -36 0 -6 -5 -11 -11 -11 -5 0 -7
-4 -4 -10 3 -5 2 -10 -3 -10 -9 0 -37 -50 -34 -62 1 -5 -2 -8 -7 -8 -4 0 -30
-37 -56 -82 -26 -46 -51 -85 -55 -88 -4 -3 -13 -20 -21 -37 -8 -18 -17 -33
-21 -33 -5 0 -8 -7 -8 -15 0 -8 -3 -15 -7 -15 -5 0 -13 -10 -19 -23 -34 -67
-46 -87 -55 -87 -6 0 -7 -4 -4 -10 3 -5 1 -10 -5 -10 -6 0 -9 -4 -6 -8 3 -5
-3 -18 -14 -30 -11 -11 -21 -26 -22 -33 -2 -7 -10 -21 -18 -31 -19 -23 -57
-86 -70 -115 -5 -13 -15 -23 -21 -23 -7 0 -9 -3 -6 -6 4 -4 -2 -19 -12 -33
-10 -14 -22 -36 -25 -49 -4 -12 -12 -20 -17 -17 -5 4 -9 -3 -9 -14 0 -12 -4
-21 -10 -21 -5 0 -10 -7 -10 -15 0 -8 -4 -15 -10 -15 -5 0 -10 -6 -10 -14 0
-7 -7 -19 -15 -26 -8 -7 -13 -15 -10 -19 2 -4 -7 -19 -20 -33 -13 -14 -21 -29
-18 -32 4 -3 0 -6 -7 -6 -7 0 -10 -3 -7 -6 4 -4 -7 -25 -23 -47 -17 -23 -30
-47 -30 -54 0 -7 -5 -13 -11 -13 -5 0 -8 -4 -5 -9 3 -5 -1 -11 -9 -15 -8 -3
-15 -10 -15 -15 0 -6 -13 -30 -30 -54 -16 -25 -30 -50 -30 -56 0 -6 -4 -11
-10 -11 -5 0 -10 -6 -10 -14 0 -8 -7 -22 -16 -30 -8 -9 -13 -16 -9 -16 3 0 -3
-10 -14 -22 -11 -11 -18 -25 -15 -30 3 -4 1 -8 -4 -8 -5 0 -14 -10 -20 -22 -6
-13 -23 -41 -37 -63 -14 -22 -28 -48 -31 -57 -4 -10 -11 -18 -16 -18 -5 0 -6
-5 -3 -10 3 -6 -1 -13 -9 -16 -9 -3 -13 -10 -10 -15 3 -5 1 -9 -4 -9 -4 0 -16
-16 -25 -35 -9 -19 -21 -35 -27 -35 -5 0 -7 -6 -4 -13 2 -7 -5 -22 -16 -34
-11 -12 -20 -24 -20 -27 0 -8 -84 -141 -93 -147 -5 -3 -9 -10 -9 -15 -1 -21
-11 -33 -22 -27 -6 3 -8 3 -4 -1 9 -11 -51 -120 -75 -137 -5 -3 -9 -10 -9 -15
0 -15 -32 -64 -41 -64 -4 0 -5 -4 -2 -10 3 -5 1 -10 -5 -10 -6 0 -8 -4 -5 -10
3 -6 2 -10 -3 -10 -9 0 -25 -37 -23 -52 1 -5 -6 -8 -14 -8 -8 0 -14 -3 -13 -8
3 -14 -14 -42 -23 -36 -5 3 -6 -2 -3 -10 4 -10 1 -16 -7 -16 -7 0 -10 -3 -6
-6 6 -6 -1 -17 -34 -53 -8 -9 -14 -22 -12 -27 2 -5 -5 -19 -14 -29 -10 -11
-27 -37 -38 -58 -11 -21 -28 -43 -39 -49 -13 -7 -15 -13 -7 -21 7 -7 861 -10
2888 -10 2425 0 2877 3 2875 14 -2 8 -9 17 -15 21 -9 6 -9 8 1 8 8 0 3 11 -12
27 -14 15 -23 30 -20 35 3 4 1 8 -3 8 -5 0 -20 22 -34 50 -13 27 -27 50 -31
50 -5 0 -8 7 -8 15 0 8 -5 15 -11 15 -6 0 -9 5 -7 12 2 6 -6 22 -19 36 -12 13
-20 28 -18 32 3 5 2 10 -3 12 -9 4 -82 126 -82 139 0 5 -4 9 -10 9 -5 0 -10 7
-10 15 0 8 -3 15 -7 15 -10 0 -33 49 -33 68 0 7 -4 10 -10 7 -5 -3 -10 -1 -10
5 0 6 -11 28 -24 49 -14 21 -22 42 -19 45 4 3 -1 6 -10 6 -9 0 -17 3 -16 8 2
16 -14 52 -24 52 -6 0 -8 3 -4 6 3 3 2 11 -4 18 -25 30 -57 85 -51 90 3 3 0 6
-7 6 -7 0 -9 5 -6 10 3 6 1 10 -4 10 -6 0 -11 7 -11 15 0 8 -3 15 -8 15 -7 0
-21 22 -44 73 -7 15 -16 27 -20 27 -4 0 -8 5 -8 11 0 6 -9 24 -21 40 -11 16
-17 29 -12 29 4 0 3 4 -3 8 -13 9 -74 109 -74 122 0 5 -7 13 -16 18 -9 5 -16
12 -16 15 0 18 -11 47 -18 47 -4 0 -11 11 -14 25 -4 14 -11 23 -16 20 -6 -3
-10 3 -10 14 0 12 -3 21 -7 21 -5 0 -19 23 -32 50 -14 28 -29 50 -33 50 -4 0
-7 3 -7 8 3 19 -2 33 -11 27 -5 -3 -10 3 -10 14 0 11 -8 25 -17 30 -10 6 -15
11 -11 11 4 0 -1 15 -12 33 -11 17 -23 40 -26 50 -4 9 -11 17 -16 17 -5 0 -7
4 -4 9 3 5 -1 12 -10 15 -9 4 -14 9 -11 13 3 3 -7 25 -23 49 -17 23 -30 47
-30 53 0 6 -5 11 -11 11 -5 0 -7 5 -4 10 3 6 2 10 -2 10 -5 0 -17 18 -27 40
-10 22 -22 40 -27 40 -5 0 -9 6 -9 13 0 7 -8 22 -18 33 -10 11 -17 24 -15 30
2 6 -3 17 -12 24 -8 7 -15 19 -15 26 0 8 -4 14 -8 14 -5 0 -17 18 -27 40 -10
22 -23 40 -28 40 -6 0 -8 3 -4 6 3 4 -1 13 -9 21 -8 8 -12 18 -9 23 3 4 -2 11
-11 14 -8 3 -12 10 -9 16 3 5 1 10 -4 10 -6 0 -11 6 -11 13 0 7 -9 23 -20 35
-11 12 -20 25 -20 30 0 5 -11 25 -24 45 -13 19 -22 38 -18 41 3 3 0 6 -6 6 -7
0 -12 7 -12 15 0 8 -4 15 -8 15 -5 0 -14 16 -22 35 -8 19 -17 35 -22 35 -4 0
-8 7 -8 15 0 8 -4 15 -10 15 -5 0 -10 6 -10 14 0 8 -7 22 -16 30 -8 9 -12 16
-7 16 4 0 4 4 -2 8 -12 9 -44 61 -52 85 -3 9 -10 17 -15 17 -5 0 -6 5 -3 10 3
6 2 10 -4 10 -6 0 -13 11 -17 25 -3 14 -10 25 -15 25 -5 0 -9 7 -9 15 0 8 -5
15 -11 15 -5 0 -8 4 -4 9 3 6 -3 14 -12 20 -10 6 -14 11 -10 11 5 0 -1 12 -12
26 -11 15 -18 30 -15 35 3 5 0 9 -5 9 -6 0 -11 7 -11 15 0 8 -4 15 -8 15 -5 0
-19 21 -33 46 -34 64 -43 80 -57 96 -6 8 -9 18 -5 21 3 4 1 7 -5 7 -7 0 -12 6
-12 14 0 8 -3 16 -7 18 -5 2 -19 23 -32 48 -14 25 -31 51 -38 58 -7 8 -11 18
-8 23 4 5 1 9 -4 9 -6 0 -11 7 -11 15 0 8 -5 15 -11 15 -5 0 -7 5 -4 10 3 6 1
10 -4 10 -6 0 -11 7 -11 15 0 8 -5 15 -11 15 -5 0 -7 5 -4 10 3 6 2 10 -3 10
-5 0 -17 18 -27 40 -10 22 -22 40 -27 40 -5 0 -6 5 -3 10 3 6 2 10 -3 10 -5 0
-12 8 -15 18 -8 23 -40 76 -49 80 -5 2 -8 10 -8 18 0 8 -5 14 -12 14 -6 0 -8
3 -5 6 4 4 -2 19 -13 34 -11 16 -20 31 -20 34 0 4 -9 17 -20 28 -11 12 -19 27
-17 32 2 6 -7 22 -19 35 -13 14 -21 28 -18 33 3 4 1 8 -4 8 -5 0 -20 21 -33
48 -13 26 -26 49 -29 52 -3 3 -14 22 -25 43 -11 20 -23 37 -28 37 -4 0 -5 5
-2 10 3 6 2 10 -3 10 -5 0 -12 8 -15 18 -8 23 -40 75 -52 84 -7 5 -7 8 0 8 7
0 7 3 0 8 -12 8 -28 34 -52 82 -9 19 -30 53 -45 74 -15 21 -28 45 -28 53 0 7
-4 13 -10 13 -5 0 -10 5 -10 11 0 6 -13 30 -30 53 -16 24 -26 46 -23 50 4 3 1
6 -6 6 -7 0 -10 4 -7 8 3 5 -4 14 -14 22 -10 8 -17 17 -14 21 2 4 -1 13 -8 21
-7 7 -24 33 -37 58 -14 25 -27 47 -31 50 -3 3 -15 22 -26 43 -36 73 -39 77
-47 77 -4 0 -5 5 -2 10 13 22 -4 8 -19 -15z m-16 -765 c0 -5 0 -13 -1 -17 0
-3 6 -10 15 -15 9 -5 14 -13 11 -19 -4 -5 -1 -9 4 -9 6 0 11 -7 11 -15 0 -8 5
-15 10 -15 6 0 10 -7 10 -15 0 -8 5 -15 10 -15 6 0 9 -3 8 -7 -2 -5 13 -33 32
-63 19 -30 33 -58 32 -62 -1 -5 3 -8 8 -8 6 0 10 -7 10 -15 0 -8 5 -15 11 -15
5 0 7 -4 4 -10 -3 -5 -1 -10 5 -10 6 0 8 -4 5 -10 -3 -5 -2 -10 3 -10 5 0 15
-13 22 -30 7 -16 16 -30 21 -30 4 0 13 -16 20 -35 7 -19 17 -35 21 -35 4 0 8
-7 8 -15 0 -8 3 -15 8 -15 4 0 18 -23 31 -50 14 -28 29 -50 34 -50 4 0 6 -4 3
-9 -3 -5 1 -14 9 -21 8 -7 15 -19 15 -26 0 -8 5 -14 10 -14 6 0 10 -7 10 -15
0 -8 5 -15 11 -15 5 0 8 -4 4 -9 -3 -5 -1 -12 5 -16 6 -3 19 -24 30 -45 l20
-40 -22 9 c-13 5 -27 10 -33 11 -5 1 -9 6 -7 11 1 6 -5 6 -16 0 -13 -7 -22 -7
-30 1 -7 7 -12 8 -12 4 0 -5 -8 -2 -17 5 -15 12 -16 12 -8 -1 8 -13 6 -13 -8
-2 -9 8 -21 11 -27 7 -5 -3 -10 -2 -10 3 0 5 -18 8 -40 8 -22 -1 -40 2 -40 5
0 5 -26 8 -112 10 -21 1 -38 6 -38 13 0 7 -3 7 -8 1 -9 -13 -84 -16 -76 -3 4
7 0 7 -12 0 -11 -5 -40 -9 -67 -8 -26 1 -47 -3 -47 -9 0 -5 -5 -3 -10 5 -5 8
-10 10 -10 4 0 -7 -15 -12 -32 -12 -39 0 -143 -17 -143 -23 0 -1 -9 -3 -20 -4
-35 -5 -50 -10 -57 -20 -5 -6 -8 -5 -8 3 0 9 -6 8 -24 -3 -16 -11 -26 -13 -31
-6 -3 6 -1 11 4 11 6 0 11 7 11 15 0 9 7 18 15 21 8 4 12 10 9 15 -3 5 0 9 5
9 6 0 10 3 9 8 -3 9 53 106 64 110 5 2 6 8 2 13 -3 5 -1 9 4 9 5 0 12 8 15 18
4 9 20 40 37 67 17 28 38 65 47 83 9 17 20 32 25 32 4 0 8 6 8 14 0 8 6 21 14
28 7 8 17 24 20 36 4 12 12 20 17 16 6 -3 9 0 7 7 -2 13 8 32 51 99 9 14 23
37 30 53 8 15 18 27 23 27 5 0 7 4 3 9 -3 5 2 16 10 24 8 9 15 18 15 22 0 3 7
17 16 30 17 25 34 33 34 15z m46 -1239 c-4 -5 -3 -11 1 -14 5 -2 3 -3 -4 -1
-6 1 -14 0 -17 -4 -7 -6 -25 -10 -58 -14 -10 -1 -18 -6 -18 -11 0 -4 -4 -6 -9
-3 -5 3 -12 -1 -15 -10 -3 -8 -10 -12 -16 -9 -5 3 -10 1 -10 -4 0 -6 -7 -11
-15 -11 -8 0 -15 -4 -15 -10 0 -5 -4 -10 -10 -10 -12 0 -130 -116 -130 -127 0
-5 -6 -15 -14 -25 -8 -9 -12 -19 -9 -22 4 -3 2 -6 -4 -6 -6 0 -16 -13 -23 -30
-7 -16 -16 -30 -21 -30 -5 0 -8 -3 -7 -7 3 -13 -25 -83 -34 -83 -4 0 -5 -6 -2
-14 3 -8 0 -17 -5 -21 -6 -3 -9 -10 -6 -15 3 -5 1 -11 -4 -15 -6 -3 -8 -12 -5
-19 3 -7 -2 -16 -12 -20 -11 -4 -15 -2 -11 8 3 8 3 17 0 20 -4 4 -8 25 -10 49
-3 23 -8 46 -13 51 -6 6 -5 15 1 23 8 9 8 13 1 13 -6 0 -11 8 -11 18 1 17 -9
97 -11 97 -2 0 -9 40 -13 75 -2 15 4 32 15 43 10 9 18 15 18 12 0 -2 12 7 26
20 14 13 29 24 33 24 14 -2 51 14 51 22 0 4 8 8 18 8 42 2 62 6 62 11 0 6 25
10 77 13 17 1 29 5 27 8 -2 4 9 7 24 7 80 2 163 10 169 15 9 10 15 8 9 -2z
m608 -196 c20 -19 37 -35 40 -35 2 0 24 -20 49 -45 24 -24 47 -41 51 -38 3 4
6 -3 6 -15 0 -18 -3 -20 -17 -13 -27 14 -56 24 -75 25 -9 1 -19 3 -22 6 -6 7
-153 3 -184 -5 -17 -4 -22 -2 -16 6 5 8 3 9 -7 3 -8 -4 -19 -9 -25 -10 -6 -1
-22 -5 -34 -9 -16 -5 -20 -4 -15 5 4 7 -4 5 -17 -4 -14 -9 -27 -13 -30 -10 -4
3 -16 0 -28 -6 -18 -10 -21 -9 -15 1 6 9 4 10 -6 3 -8 -5 -17 -9 -21 -10 -5
-1 -9 -2 -10 -4 -2 -1 -12 -3 -23 -5 -11 -2 -45 -11 -75 -21 -30 -9 -59 -17
-65 -18 -5 0 -14 -5 -18 -11 -5 -6 -7 -4 -4 5 2 8 9 15 16 15 6 0 16 7 21 15
9 13 10 13 10 0 0 -9 3 -11 8 -4 8 12 73 40 85 36 4 -1 7 3 7 8 0 6 4 10 9 10
5 0 35 12 67 27 33 14 65 28 72 29 8 1 22 10 33 20 15 13 19 14 19 3 0 -8 3
-10 8 -4 13 18 72 46 82 40 6 -3 13 1 16 9 3 9 10 14 14 11 5 -3 11 -1 15 5 4
6 11 8 16 5 5 -4 9 -1 9 4 0 20 19 11 54 -24z m-1411 -82 c-3 -10 -11 -24 -17
-32 -8 -11 -8 -13 2 -7 6 4 12 2 12 -3 0 -6 -6 -11 -12 -12 -10 0 -10 -2 0 -6
6 -2 10 -8 7 -13 -10 -16 -12 -70 -3 -76 5 -3 5 -11 0 -17 -10 -14 -10 -102 0
-113 4 -3 2 -16 -3 -27 -7 -11 -7 -22 -2 -26 5 -3 10 -19 10 -36 1 -16 4 -39
6 -50 16 -64 22 -82 34 -102 8 -12 14 -24 14 -27 -3 -19 0 -26 8 -22 13 8 6
-41 -8 -58 -6 -8 -11 -18 -9 -22 1 -5 -3 -19 -10 -32 -7 -12 -10 -27 -7 -32 3
-6 2 -10 -2 -10 -5 0 -14 -20 -21 -45 -8 -29 -17 -45 -28 -45 -8 0 -13 3 -10
8 2 4 -4 25 -14 47 -10 22 -16 43 -14 47 3 5 0 8 -5 8 -6 0 -11 4 -11 9 0 5
-8 26 -17 47 -9 22 -18 41 -18 44 -1 3 -8 21 -16 40 -7 19 -12 38 -11 43 1 4
-2 7 -8 7 -5 0 -10 9 -10 19 0 11 -4 21 -9 23 -5 2 -11 14 -13 28 -1 14 -9 31
-16 38 -7 8 -10 18 -7 23 4 5 1 9 -4 9 -6 0 -11 9 -11 20 0 11 -4 20 -8 20
-18 0 -11 54 11 80 44 56 57 74 57 83 0 4 3 6 8 4 4 -3 18 13 32 34 13 21 28
39 32 39 4 0 8 7 8 15 0 8 7 15 16 15 8 0 13 4 10 9 -6 8 46 71 58 71 3 0 3
-8 -1 -17z m1323 -325 c10 -7 39 -14 104 -25 19 -3 40 -9 45 -13 6 -4 18 -6
28 -5 9 2 17 0 17 -5 0 -4 10 -7 23 -6 12 1 31 -3 42 -9 11 -7 30 -11 43 -10
12 1 22 -1 22 -6 0 -4 8 -8 18 -8 19 -1 66 -8 70 -11 1 -2 6 -3 11 -4 5 0 12
-4 16 -8 4 -4 13 -4 21 -1 8 3 14 0 14 -7 0 -6 4 -9 9 -5 10 6 24 -11 28 -35
7 -41 15 -97 15 -110 1 -8 5 -20 10 -27 5 -7 7 -17 3 -23 -3 -5 -2 -10 3 -10
5 0 9 -6 9 -12 3 -36 11 -79 16 -85 4 -3 1 -13 -6 -21 -8 -11 -8 -14 0 -9 6 4
14 3 18 -3 3 -5 0 -10 -8 -10 -17 0 -39 24 -30 33 3 4 -2 9 -11 13 -9 3 -16
12 -16 19 0 8 -9 17 -20 20 -11 4 -18 10 -15 15 3 4 -5 15 -18 23 -12 8 -37
29 -54 46 -18 17 -36 31 -39 31 -4 0 -15 10 -25 22 -11 11 -19 18 -19 14 0 -7
-15 4 -54 41 -13 12 -27 19 -30 16 -3 -3 -8 2 -12 11 -3 9 -10 13 -15 10 -5
-3 -12 2 -15 10 -3 9 -10 14 -14 11 -5 -3 -13 3 -19 12 -5 10 -12 17 -16 15
-3 -2 -29 12 -57 30 -28 18 -55 32 -60 31 -4 -2 -8 2 -8 7 0 6 -7 10 -15 10
-8 0 -15 5 -15 10 0 6 -9 10 -21 10 -11 0 -18 4 -15 9 7 10 25 9 42 -1z m-500
-149 c5 -3 19 -4 32 -3 12 0 22 -3 22 -8 0 -6 7 -8 15 -5 8 4 17 2 20 -4 4 -5
11 -7 16 -4 5 4 9 1 9 -4 0 -6 9 -11 20 -11 11 0 20 -4 20 -10 0 -5 4 -10 10
-10 22 0 130 -105 130 -127 0 -8 5 -11 10 -8 6 3 10 -3 10 -14 0 -11 5 -23 10
-26 6 -3 10 -15 10 -26 0 -10 4 -19 8 -19 5 0 9 -6 9 -12 3 -41 8 -68 14 -68
8 0 5 -32 -5 -48 -4 -7 -2 -12 4 -12 7 0 8 -6 0 -19 -7 -14 -7 -22 0 -26 7 -4
8 -11 1 -18 -5 -7 -11 -23 -13 -37 -1 -14 -7 -28 -11 -31 -4 -3 -9 -15 -10
-27 0 -12 -7 -24 -15 -27 -7 -3 -11 -9 -8 -13 3 -5 -13 -29 -34 -53 -22 -24
-40 -47 -40 -51 0 -5 -7 -8 -15 -8 -8 0 -15 -5 -15 -10 0 -6 -18 -19 -40 -29
-22 -10 -38 -20 -35 -23 3 -2 -2 -5 -10 -6 -8 -1 -22 -3 -30 -4 -8 -1 -15 -4
-15 -8 0 -4 -6 -7 -12 -8 -7 -1 -34 -3 -60 -6 -26 -2 -52 -7 -58 -11 -5 -3
-10 -2 -10 2 0 5 -12 9 -27 10 -46 1 -83 7 -83 13 0 3 -10 7 -22 7 -13 1 -24
7 -26 13 -2 5 -7 8 -12 5 -4 -3 -13 2 -20 10 -7 8 -17 15 -22 15 -5 0 -23 13
-41 30 -18 16 -35 30 -39 30 -5 0 -8 7 -8 15 0 9 -7 18 -15 21 -8 4 -12 10 -9
15 3 5 1 9 -4 9 -9 0 -46 68 -45 80 1 3 -3 10 -9 17 -5 7 -7 17 -3 23 3 5 2
10 -4 10 -6 0 -8 7 -5 15 4 8 1 15 -6 15 -10 0 -10 3 0 15 8 10 9 15 1 15 -7
0 -8 8 -1 25 6 16 6 25 -1 25 -6 0 -6 7 1 20 8 15 8 20 -2 20 -10 0 -10 2 1 9
7 5 11 13 7 19 -3 6 -2 13 3 17 6 3 8 12 4 20 -3 8 1 15 8 15 7 0 9 3 6 6 -3
4 -1 16 5 28 7 11 11 25 10 29 -1 4 5 10 13 13 8 3 13 10 10 14 -3 5 20 34 50
65 30 31 55 52 55 48 0 -4 5 0 10 9 6 9 24 19 40 23 17 4 30 11 30 16 0 6 5 7
10 4 6 -3 10 -1 10 5 0 6 5 8 10 5 6 -3 16 -3 23 2 6 4 22 8 35 9 12 0 24 3
26 5 6 6 90 4 102 -2z m-1191 -469 c4 -16 10 -30 14 -30 4 0 14 -12 22 -27 8
-16 22 -35 31 -44 10 -9 15 -19 11 -23 -3 -3 1 -6 11 -6 9 0 15 -4 11 -10 -3
-5 6 -17 20 -26 14 -9 25 -23 25 -30 0 -8 4 -14 9 -14 5 0 28 -19 52 -41 24
-23 61 -53 82 -67 20 -13 37 -29 37 -34 0 -5 4 -7 10 -3 5 3 18 -3 30 -15 11
-11 27 -20 35 -20 8 0 15 -4 15 -10 0 -5 9 -10 20 -10 11 0 20 -4 20 -10 0 -5
8 -10 19 -10 10 0 31 -10 47 -22 15 -13 25 -17 21 -11 -5 9 3 8 26 -2 19 -8
38 -11 42 -7 4 4 6 0 3 -8 -3 -11 -18 -14 -54 -13 -27 1 -49 2 -49 3 0 1 -29
3 -65 5 -36 1 -75 5 -88 8 -12 3 -20 2 -17 -3 3 -5 -4 -8 -15 -7 -11 1 -20 4
-20 7 0 8 -44 5 -58 -4 -7 -4 -12 -3 -12 2 0 4 -29 8 -65 7 -36 0 -65 3 -65 8
0 5 -7 4 -15 -3 -17 -14 -17 -14 -19 20 -1 14 -5 31 -10 38 -4 7 -5 19 -2 27
3 8 0 15 -5 15 -6 0 -9 9 -6 20 3 11 2 20 -3 20 -4 0 -6 11 -5 25 2 14 0 25
-4 25 -4 0 -7 8 -8 18 -2 29 -11 74 -29 145 -3 12 -8 41 -11 65 -3 23 -10 42
-16 42 -5 0 -3 8 4 17 12 14 12 16 0 8 -10 -5 -12 -4 -7 3 12 20 24 13 31 -18z
m1960 -179 c-3 -5 2 -16 10 -25 11 -10 12 -17 4 -22 -8 -4 -7 -9 2 -15 8 -4
14 -12 15 -16 1 -15 17 -68 23 -78 3 -5 6 -14 7 -20 4 -25 9 -40 14 -45 7 -6
34 -90 35 -105 0 -5 2 -12 5 -15 17 -17 27 -48 19 -62 -5 -8 -39 -35 -76 -59
-38 -24 -74 -49 -81 -56 -19 -18 -31 -16 -27 5 2 9 4 18 5 20 2 1 4 7 5 12 1
6 4 12 5 15 1 3 3 8 4 13 1 4 5 13 10 21 7 10 6 12 -3 6 -10 -6 -11 -3 -2 12
5 11 10 28 10 39 0 10 2 33 6 49 6 34 6 33 2 100 -1 28 1 58 5 68 6 10 5 17
-2 17 -8 0 -8 6 0 20 6 11 7 20 3 20 -5 0 -8 24 -7 53 2 58 2 57 10 57 3 0 3
-4 -1 -9z m789 -83 c-3 -4 1 -8 8 -9 10 0 11 -2 0 -6 -9 -4 -8 -9 6 -21 10
-10 31 -39 46 -67 16 -27 32 -55 37 -61 5 -6 6 -14 2 -17 -3 -4 -1 -7 5 -7 7
0 12 -6 12 -14 0 -8 7 -17 16 -20 8 -3 12 -10 9 -16 -3 -5 -2 -10 3 -10 5 0
12 -8 15 -17 6 -18 37 -73 47 -83 3 -3 11 -15 18 -27 6 -13 18 -33 25 -45 6
-13 14 -25 17 -28 3 -3 14 -22 25 -42 11 -21 23 -38 27 -38 5 0 8 -3 7 -7 -2
-16 14 -53 20 -48 4 2 14 -11 21 -30 8 -19 17 -35 22 -35 4 0 8 -7 8 -15 0 -9
9 -25 20 -37 11 -12 20 -28 20 -35 0 -7 4 -13 8 -13 5 0 14 -16 22 -35 8 -19
17 -35 22 -35 4 0 8 -7 8 -15 0 -8 5 -15 11 -15 5 0 7 -4 4 -10 -3 -5 -1 -10
4 -10 6 0 11 -7 11 -15 0 -8 4 -15 9 -15 5 0 11 -8 14 -17 2 -10 8 -27 12 -38
4 -11 3 -16 -2 -10 -11 14 -57 15 -65 1 -4 -6 -8 -7 -8 -1 0 6 -33 11 -80 11
-54 0 -77 -3 -73 -10 4 -6 1 -6 -8 1 -9 7 -51 11 -118 10 -56 -1 -105 1 -107
5 -3 4 -11 4 -20 1 -27 -10 -174 -9 -175 2 0 7 -2 7 -5 0 -2 -6 -72 -8 -195
-5 -105 3 -193 2 -195 -2 -2 -3 -19 -2 -36 3 -22 6 -34 5 -39 -2 -5 -8 -8 -8
-13 0 -4 6 -11 9 -16 6 -5 -3 -12 -1 -15 5 -4 6 -3 9 2 8 12 -4 134 94 133
107 0 3 2 4 5 3 2 -2 14 11 27 28 13 17 37 44 53 61 40 40 81 95 78 104 -2 4
6 11 17 14 11 4 18 10 15 15 -3 5 1 14 8 22 7 7 26 36 42 63 16 28 32 52 35
55 7 6 45 92 44 100 0 3 6 11 13 18 7 7 13 20 13 28 0 8 4 14 10 14 5 0 7 7 4
15 -4 8 -1 15 5 15 6 0 10 3 9 8 -3 13 15 66 28 86 7 10 10 29 8 42 -3 15 1
27 9 30 7 2 13 17 12 32 0 15 5 38 12 51 9 20 10 28 0 40 -10 12 -9 12 10 1
12 -8 19 -18 17 -22z m-3245 -16 c0 -16 8 -57 11 -57 2 0 10 -36 12 -57 1 -10
6 -18 11 -18 4 0 6 -4 3 -8 -2 -4 1 -21 9 -37 24 -55 40 -100 37 -107 -1 -5 3
-8 9 -8 5 0 7 -4 4 -10 -3 -5 -1 -10 4 -10 6 0 10 -3 9 -7 -3 -13 36 -93 45
-93 4 0 5 -4 2 -10 -3 -5 -1 -10 5 -10 6 0 8 -4 5 -10 -3 -5 -2 -10 3 -10 5 0
17 -18 27 -40 10 -22 23 -40 28 -40 6 0 8 -3 4 -6 -3 -3 4 -16 15 -29 11 -13
19 -26 18 -30 -1 -4 8 -15 19 -24 12 -10 21 -24 21 -31 0 -7 3 -10 6 -7 4 4
14 -7 23 -24 9 -17 21 -30 25 -29 5 1 16 -10 26 -25 9 -14 27 -33 39 -41 12
-9 19 -19 16 -23 -2 -5 7 -13 21 -20 14 -6 22 -16 19 -21 -3 -6 -1 -10 5 -10
17 0 40 -26 32 -35 -4 -5 -2 -6 3 -2 11 6 39 -13 42 -28 1 -6 -12 -10 -28 -10
-16 0 -29 2 -29 5 0 10 -285 5 -292 -5 -5 -6 -8 -6 -8 2 0 11 -45 11 -57 -1
-3 -3 -12 -1 -19 5 -9 7 -19 7 -33 0 -11 -6 -22 -8 -25 -3 -2 4 -148 7 -325 7
l-320 0 21 35 c11 19 29 49 39 67 10 17 29 50 43 72 15 22 26 44 26 49 0 4 9
18 20 30 12 12 17 22 13 22 -4 0 -3 4 2 8 10 7 28 36 53 85 7 15 18 27 24 27
6 0 9 3 5 6 -3 4 5 23 18 43 14 19 25 41 25 48 0 7 4 13 8 13 5 0 17 18 27 40
10 22 21 40 25 40 3 0 12 16 20 35 8 19 17 35 22 35 4 0 8 7 8 15 0 9 7 18 15
21 8 4 13 10 10 14 -3 5 2 15 10 24 9 8 15 18 15 21 -1 3 16 33 37 67 21 34
37 66 36 70 -2 4 1 8 6 8 10 0 27 39 22 54 -1 5 5 4 13 -3 8 -7 15 -20 15 -29z
m2233 -160 c-7 -2 -10 -8 -7 -12 3 -5 -1 -25 -9 -45 -9 -20 -11 -33 -5 -29 7
4 6 -3 -1 -17 -7 -13 -14 -37 -16 -54 -1 -16 -5 -41 -9 -55 -4 -14 -7 -32 -7
-40 0 -8 -5 -21 -11 -27 -6 -9 -5 -13 4 -13 9 0 10 -3 4 -8 -5 -4 -12 -14 -14
-22 -2 -8 -4 -19 -5 -25 -2 -5 -7 -32 -11 -60 -10 -53 -11 -61 -15 -72 -1 -5
-2 -11 -1 -16 1 -9 -49 -31 -66 -28 -7 1 -13 -2 -13 -8 0 -5 -8 -8 -17 -7 -9
2 -28 -3 -42 -10 -13 -7 -28 -11 -33 -8 -4 3 -8 0 -8 -6 0 -7 -7 -10 -15 -6
-8 3 -15 2 -15 -3 0 -4 -6 -8 -12 -9 -31 -3 -53 -7 -58 -12 -3 -3 -30 -13 -60
-24 -30 -10 -61 -21 -69 -24 -11 -4 -11 -1 -2 16 7 12 18 22 26 22 8 0 15 4
15 8 0 7 30 41 145 163 8 9 15 19 15 24 0 4 11 18 25 31 14 13 25 26 25 29 0
3 4 11 10 18 43 50 60 73 60 79 0 4 6 13 13 20 31 32 86 116 80 122 -3 3 1 6
11 6 9 0 15 4 12 9 -3 5 1 14 9 21 8 7 13 16 10 20 -3 5 4 11 15 15 11 4 18
10 15 15 -3 5 -1 11 5 15 6 4 8 11 5 16 -4 5 2 6 11 2 11 -4 13 -8 6 -11z
m-1407 -283 c4 -5 17 -9 31 -9 13 0 24 -4 24 -8 0 -5 12 -9 28 -9 33 -1 68 -9
84 -19 7 -5 8 -3 3 5 -6 10 -3 11 12 2 11 -5 40 -12 65 -14 25 -3 51 -8 57
-11 6 -4 11 -2 11 5 0 8 4 9 13 0 10 -8 17 -7 25 1 9 9 12 9 12 -1 0 -10 3
-11 14 -2 9 8 16 8 20 2 6 -9 41 -10 61 0 6 2 34 4 62 4 29 0 53 3 53 6 0 3 7
6 15 6 8 0 15 -7 15 -14 0 -8 -4 -11 -10 -8 -5 3 -22 -1 -38 -9 -16 -8 -32
-12 -36 -9 -3 4 -6 1 -6 -5 0 -6 -10 -9 -21 -7 -12 3 -19 2 -15 -2 3 -3 -18
-14 -47 -24 -28 -10 -65 -26 -81 -35 -22 -13 -27 -13 -21 -3 5 8 -2 5 -14 -6
-13 -11 -25 -19 -27 -17 -2 1 -22 -3 -44 -9 -37 -11 -41 -10 -59 12 -11 13
-20 20 -21 16 0 -4 -13 5 -29 20 -42 40 -59 53 -70 53 -5 0 -11 4 -13 8 -1 4
-20 21 -40 36 -21 16 -36 32 -33 36 3 5 -3 6 -14 3 -10 -3 -21 -1 -25 5 -3 5
8 9 24 10 16 0 32 -4 35 -9z"/>
<path d="M4510 3932 c0 -5 -10 -9 -22 -8 -13 1 -25 -2 -28 -5 -3 -4 -11 -9
-18 -11 -41 -10 -102 -93 -106 -144 -2 -19 -6 -37 -9 -41 -4 -3 -2 -14 4 -25
6 -11 8 -22 5 -26 -4 -3 4 -17 16 -30 13 -14 16 -22 8 -18 -9 5 -8 2 2 -7 10
-8 16 -16 13 -19 -3 -2 6 -11 20 -18 14 -7 25 -17 25 -22 0 -4 4 -8 9 -8 5 0
22 -5 38 -11 24 -10 63 -12 123 -7 8 0 27 9 41 19 14 10 30 15 35 11 5 -4 6
-3 2 2 -4 5 1 16 11 25 32 28 53 81 52 135 -1 71 -3 86 -13 86 -5 0 -6 5 -3
10 3 6 1 10 -6 10 -7 0 -10 3 -7 6 7 6 -39 54 -52 54 -6 0 -10 4 -10 9 0 10
-32 22 -70 26 -14 2 -33 6 -42 10 -10 4 -18 3 -18 -3z"/>
</g>
</svg>
